<?xml version="1.0" encoding="utf-8"?>
<svg width="99px" height="80px" viewBox="0 0 99 80" version="1.1" xmlns:xlink="http://www.w3.org/1999/xlink" xmlns="http://www.w3.org/2000/svg">
  <defs>
    <linearGradient gradientUnits="objectBoundingBox" x1="0.00017629622" y1="0.24460937" x2="1.058027" y2="0.7082295" id="gradient_1">
      <stop offset="44.594593%" stop-color="#B5AAFC" />
      <stop offset="100%" stop-color="#4D486A" />
    </linearGradient>
  </defs>
  <path d="M0.953674 23.5317L16.4876 75.4309C16.4876 75.4309 18.0984 80.3355 24.6659 79.9818C31.2334 79.628 32.1626 75.4308 32.1626 75.4308L39.8865 44.2573L47.0425 63.3711C47.0425 63.3711 48.9669 67.8969 56.6974 67.8082C64.4279 67.7194 65.5572 63.3711 65.5572 63.3711L74.3035 23.5317L83.1633 75.4308C83.1633 75.4308 84.7316 81.0956 92.3638 79.7542C99.9959 78.4128 98.9518 73.1554 98.9518 73.1554L87.8204 7.96405C87.8204 7.96405 86.5823 0 76.6888 0C66.7953 0 65.1029 8.19159 65.1029 8.19159L55.5615 53.4728C55.5615 53.4728 47.3311 28.2141 46.5882 26.6227C45.8453 25.0312 43.0216 21.9994 36.7061 23.5317C30.3906 25.064 29.5501 29.9221 29.5501 29.9221L24.6659 53.2453L16.4876 19.5688C16.4876 19.5688 14.8148 8.95908 5.81039 11.7185C-3.19403 14.478 0.953674 23.5317 0.953674 23.5317Z" id="Vector" fill="url(#gradient_1)" fill-rule="evenodd" stroke="none" />
</svg>